<?xml version="1.0" standalone="no"?>
<!DOCTYPE svg PUBLIC "-//W3C//DTD SVG 20010904//EN"
 "http://www.w3.org/TR/2001/REC-SVG-20010904/DTD/svg10.dtd">
<svg version="1.0" xmlns="http://www.w3.org/2000/svg"
 width="2000.000000pt" height="2000.000000pt" viewBox="0 0 2000.000000 2000.000000"
 preserveAspectRatio="xMidYMid meet">

<g transform="translate(0.000000,2000.000000) scale(0.100000,-0.100000)"
fill="#000000" stroke="none">
<path d="M10 9995 l0 -9995 9995 0 9995 0 0 9995 0 9995 -9995 0 -9995 0 0
-9995z m9785 6030 c90 -209 214 -504 275 -655 62 -151 120 -293 130 -315 10
-22 25 -60 33 -85 31 -93 148 -384 144 -360 -2 14 -37 142 -76 285 -93 333
-199 757 -250 1002 -43 203 -101 528 -101 566 0 12 34 -52 76 -143 42 -91 196
-412 344 -715 299 -613 350 -722 522 -1110 229 -517 462 -1087 638 -1560 45
-121 148 -389 230 -595 81 -206 221 -566 310 -800 90 -234 166 -429 170 -433
4 -5 90 17 191 47 243 73 556 158 926 250 546 137 860 203 1494 316 217 38
440 79 493 90 171 35 157 25 -72 -54 -90 -31 -286 -92 -435 -137 -689 -205
-1039 -325 -1882 -644 -286 -108 -532 -202 -547 -207 -29 -10 -35 -27 -18 -58
9 -17 20 -15 187 41 968 325 2098 620 3438 899 181 38 331 67 333 65 4 -4 -41
-25 -408 -197 -592 -277 -1462 -653 -1813 -783 -78 -29 -48 -27 64 5 57 17
329 93 604 170 275 77 560 157 634 180 74 22 136 38 138 37 5 -6 -513 -257
-757 -367 -529 -239 -1095 -464 -1900 -753 -174 -63 -205 -77 -203 -93 3 -25
309 -773 468 -1144 70 -162 242 -554 382 -870 602 -1357 824 -1911 1101 -2750
61 -184 142 -416 181 -515 39 -98 69 -181 67 -182 -1 -2 -48 75 -104 171 -56
96 -193 315 -305 488 -828 1274 -1143 1843 -1637 2957 -161 364 -557 1313
-671 1609 -13 34 -28 62 -32 62 -12 0 -8 -9 143 -390 182 -455 374 -916 735
-1760 684 -1601 726 -1709 1127 -2870 82 -239 226 -651 320 -915 94 -264 173
-487 176 -495 8 -25 -255 353 -379 545 -312 482 -596 986 -901 1600 -77 154
-137 271 -134 260 65 -221 285 -999 283 -1002 -10 -10 -469 850 -764 1432
-117 231 -213 416 -213 412 0 -12 210 -669 292 -912 65 -195 166 -476 218
-605 12 -30 17 -50 12 -45 -5 6 -64 105 -132 220 -68 116 -230 381 -360 590
-337 539 -506 838 -733 1290 -307 614 -538 1170 -847 2038 -32 89 -57 146 -64
143 -6 -2 -121 -47 -256 -99 -629 -244 -1939 -784 -1966 -811 -6 -6 -159 -429
-339 -941 -180 -511 -402 -1135 -492 -1385 -91 -250 -176 -488 -191 -527 -14
-40 -27 -71 -29 -69 -2 1 22 117 52 257 31 140 101 463 155 719 54 256 115
537 134 624 20 88 36 164 35 170 0 6 -23 -59 -50 -144 -241 -744 -410 -1234
-689 -2000 -180 -495 -372 -1002 -376 -997 -2 2 27 141 66 309 38 168 108 490
155 715 47 224 90 427 95 450 23 98 3 53 -91 -207 -279 -771 -479 -1304 -686
-1835 -101 -260 -125 -313 -117 -263 3 13 29 178 59 368 244 1537 476 2542
901 3919 47 150 83 275 81 277 -1 2 -18 -4 -37 -14 -34 -17 -35 -19 -92 -232
-111 -409 -237 -846 -303 -1050 -141 -434 -400 -1112 -640 -1675 -156 -367
-528 -1215 -532 -1211 -4 4 42 322 73 496 160 912 476 2172 760 3033 69 208
124 381 121 383 -2 3 -71 -22 -153 -54 -82 -33 -367 -144 -634 -247 -267 -103
-602 -234 -744 -291 -143 -57 -261 -102 -263 -100 -13 12 1084 594 1705 905
111 55 202 106 202 112 0 6 -6 9 -12 6 -56 -24 -1568 -734 -1803 -847 -396
-189 -1091 -536 -1390 -695 -132 -70 -249 -132 -260 -137 -55 -25 369 353 640
571 449 362 905 681 1399 978 105 63 193 117 196 119 6 7 -51 -18 -265 -116
-291 -133 -1115 -500 -1122 -500 -15 0 454 326 787 549 788 526 1323 845 1969
1176 l294 150 127 370 c307 894 561 1571 800 2135 269 635 319 739 907 1900
122 239 245 488 274 552 29 65 55 116 57 113 6 -6 -80 -288 -154 -508 -36
-105 -138 -384 -226 -621 -88 -237 -285 -789 -438 -1226 -602 -1723 -850
-2453 -837 -2466 2 -3 31 8 63 23 l59 28 64 195 c35 107 137 413 228 680 490
1442 809 2254 1259 3203 l113 238 -45 201 c-24 110 -64 306 -89 436 -49 258
-56 284 -115 477 -59 189 -149 556 -224 910 -78 362 -165 761 -173 784 -10 31
23 -23 84 -134 68 -123 282 -553 507 -1018 82 -169 150 -306 152 -305 1 2 -13
62 -32 133 -108 413 -209 880 -319 1475 -47 256 -97 517 -111 580 -13 63 -24
120 -24 125 0 13 388 -866 605 -1370z m1825 -620 c547 -63 1239 -260 1705
-485 417 -201 768 -483 1068 -858 379 -473 528 -745 636 -1163 40 -155 55
-274 48 -389 -5 -97 -36 -280 -46 -280 -4 0 -15 24 -25 53 -21 60 -185 390
-253 511 -44 78 -200 306 -209 306 -2 0 3 -17 12 -37 49 -115 73 -176 97 -248
32 -96 88 -307 83 -312 -2 -2 -20 27 -41 64 -149 272 -455 654 -800 998 -354
353 -767 666 -1370 1037 -259 159 -386 228 -549 298 -254 108 -426 160 -661
199 -47 8 -19 9 130 6 292 -6 606 -53 875 -130 63 -18 116 -32 118 -30 4 4
-264 117 -415 174 -379 145 -836 255 -1123 270 -109 6 -119 8 -77 15 163 28
557 29 797 1z m1045 -39 c384 -99 572 -165 798 -278 294 -147 543 -326 796
-573 279 -272 536 -664 851 -1300 207 -419 226 -468 85 -225 -433 746 -591
973 -954 1370 -307 336 -619 583 -938 743 -109 55 -288 123 -588 223 -154 51
-275 94 -270 94 6 0 105 -25 220 -54z m-3715 -719 c-296 -149 -582 -348 -970
-676 -195 -165 -507 -449 -469 -426 8 5 59 39 114 75 204 136 659 399 575 332
-232 -183 -299 -238 -385 -311 -202 -172 -595 -544 -595 -562 0 -5 37 16 83
45 132 86 319 191 502 280 162 80 374 171 380 164 2 -2 -54 -46 -123 -98 -390
-293 -730 -593 -979 -863 -159 -172 -427 -492 -531 -633 -214 -288 -555 -893
-707 -1254 -227 -539 -392 -1287 -396 -1790 -2 -239 -34 -13 -45 320 -16 447
67 1043 216 1556 17 59 29 108 27 110 -7 7 -153 -307 -210 -451 -107 -272
-196 -577 -256 -876 -75 -370 -87 -618 -46 -923 11 -79 -36 133 -52 234 -13
87 -17 172 -17 355 1 639 155 1305 439 1903 35 72 62 132 60 132 -7 0 -151
-230 -227 -363 -242 -420 -397 -853 -492 -1370 -52 -276 -60 -373 -61 -687 0
-323 10 -427 65 -645 16 -60 27 -111 25 -113 -5 -5 -97 247 -125 346 -105 365
-146 736 -137 1217 8 398 33 618 123 1056 78 384 174 690 329 1059 167 396
257 555 491 865 327 435 660 774 1043 1063 298 225 435 312 737 464 554 280
1096 466 1509 517 138 17 147 18 200 19 l50 2 -145 -73z m3776 -471 c191 -65
292 -108 444 -187 400 -210 773 -548 1035 -939 31 -47 61 -94 67 -105 9 -18 9
-18 -4 -5 -8 8 -53 60 -100 115 -303 351 -779 704 -1493 1107 -66 37 -117 68
-114 68 3 0 78 -24 165 -54z m49 -306 c33 -6 98 -23 145 -37 387 -115 613
-336 807 -788 l34 -79 -103 100 c-57 55 -179 161 -273 236 -211 170 -324 265
-462 392 -59 55 -138 119 -175 144 -70 46 -81 57 -50 48 9 -2 44 -10 77 -16z
m241 -613 c54 -58 74 -96 32 -61 -48 39 -148 139 -148 147 0 17 64 -30 116
-86z m-6266 -1536 c0 -15 -78 -284 -115 -395 -46 -136 -92 -237 -194 -420 -56
-101 -88 -170 -103 -226 -12 -47 -25 -76 -28 -68 -37 69 -46 373 -16 493 45
174 145 335 318 508 108 108 138 131 138 108z m136 -563 c-10 -120 -41 -226
-89 -307 -18 -30 -21 -32 -31 -15 -6 11 -11 60 -11 109 0 81 3 97 32 157 35
73 79 138 95 138 7 0 8 -29 4 -82z m8233 -668 c83 -209 131 -525 131 -865 0
-181 -21 -509 -45 -689 -8 -61 -13 -111 -12 -113 2 -1 49 149 106 335 56 185
117 387 136 448 36 117 125 506 125 545 0 78 41 -81 75 -291 47 -291 21 -645
-71 -975 -55 -195 -181 -507 -271 -674 -159 -292 -416 -592 -711 -828 -96 -76
-380 -273 -394 -273 -3 0 24 30 60 68 126 130 271 325 411 555 l41 68 -101
-91 c-153 -137 -389 -305 -397 -282 -1 5 26 83 62 173 35 90 105 281 154 424
101 293 161 453 237 635 125 297 234 598 281 778 87 336 150 925 121 1132 l-7
55 19 -30 c11 -16 33 -64 50 -105z m-352 -657 c4 -54 7 -197 7 -318 -2 -252
-22 -418 -78 -639 -107 -415 -326 -815 -621 -1131 l-55 -60 59 92 c97 152 223
421 297 638 57 165 201 669 253 885 45 184 86 397 103 538 7 50 15 92 19 92 4
0 11 -44 16 -97z m-333 -479 c3 -26 6 -88 6 -139 0 -187 -67 -348 -206 -494
-90 -95 -183 -169 -170 -135 4 10 37 98 72 194 58 158 270 619 285 620 4 0 9
-21 13 -46z m-399 -369 c-9 -24 -23 -49 -31 -55 -24 -20 -17 19 13 81 32 63
45 44 18 -26z m1660 -141 c-98 -467 -261 -802 -603 -1234 -182 -230 -182 -229
56 165 240 398 272 454 348 609 48 100 96 222 146 371 40 122 75 221 77 219 1
-1 -9 -60 -24 -130z m-9635 -2060 c25 -29 68 -90 95 -136 27 -46 60 -98 73
-116 l25 -33 -69 26 c-201 76 -324 213 -353 395 -18 111 -19 111 87 9 53 -51
117 -117 142 -145z m77 83 c13 -27 13 -28 -4 -19 -35 19 -94 101 -93 129 1 12
80 -78 97 -110z m-201 -207 c107 -123 284 -410 252 -410 -21 0 -153 65 -206
102 -26 18 -67 50 -91 73 l-44 40 52 -75 c29 -41 85 -122 123 -180 39 -58 93
-131 120 -162 l49 -58 -29 0 c-46 0 -181 38 -251 70 -136 64 -280 194 -354
321 -42 71 -81 186 -97 281 -12 76 -13 258 -1 258 6 0 222 -246 277 -317 8
-10 -4 20 -26 67 -39 84 -80 220 -80 267 0 21 18 8 121 -89 66 -62 149 -147
185 -188z m-560 -147 c146 -273 276 -448 427 -575 32 -26 55 -48 51 -48 -25 0
-159 94 -225 157 -140 134 -239 304 -314 541 -13 39 -22 72 -20 72 2 0 38 -66
81 -147z m4124 -174 c25 -13 -52 -39 -120 -39 -56 0 -140 23 -128 35 21 21
211 24 248 4z m377 -384 c-71 -65 -185 -126 -293 -157 -104 -29 -303 -31 -409
-4 -81 22 -195 65 -195 75 0 9 261 86 359 107 106 22 231 31 426 32 l170 1
-58 -54z m2341 4 c-40 -72 -143 -184 -253 -275 -580 -483 -1432 -834 -2255
-929 -556 -64 -1234 6 -1675 171 -81 31 -588 274 -582 280 1 1 29 -4 62 -12
250 -59 822 -78 1345 -45 l105 6 -150 8 c-358 18 -602 50 -859 114 -146 36
-185 55 -70 34 142 -27 384 -34 699 -22 170 6 360 16 420 22 133 12 1061 165
1340 220 538 107 1015 239 1388 382 37 14 67 24 67 22 0 -2 -54 -44 -119 -94
-248 -186 -488 -304 -901 -442 -96 -32 -169 -59 -162 -59 25 0 302 62 472 106
443 115 821 277 1029 440 41 32 83 71 94 86 30 40 32 34 5 -13z m-1560 -195
c-176 -90 -515 -210 -728 -258 -309 -69 -523 -89 -965 -90 -315 -1 -528 11
-586 33 -10 3 69 6 174 7 283 1 539 30 1067 120 308 52 864 163 995 198 119
32 122 31 43 -10z m1242 -478 c0 -2 -36 -31 -80 -65 -192 -149 -482 -310 -694
-386 -126 -45 -460 -136 -641 -174 -297 -63 -619 -98 -985 -108 -359 -9 -668
20 -1080 103 -202 40 -633 144 -627 151 3 2 164 -27 358 -66 577 -114 761
-136 1174 -136 362 0 577 22 928 95 399 83 702 187 1362 469 314 134 285 122
285 117z"/>
<path d="M9735 13029 c-4 -6 -5 -12 -2 -15 2 -3 7 2 10 11 7 17 1 20 -8 4z"/>
<path d="M9891 12463 c-1 -6 -4 -20 -7 -30 -5 -17 -5 -17 6 0 6 10 9 23 6 30
-3 9 -5 9 -5 0z"/>
<path d="M10046 11900 c-3 -8 -48 -132 -100 -275 -137 -380 -212 -575 -425
-1109 -105 -263 -190 -481 -188 -483 3 -2 114 41 248 96 134 55 399 159 589
232 190 72 346 133 348 135 2 1 -64 199 -146 441 -82 241 -184 548 -227 683
-42 135 -80 256 -84 270 -7 18 -10 21 -15 10z"/>
<path d="M10530 10047 c-656 -263 -1285 -525 -1277 -533 2 -2 174 65 383 149
208 85 523 209 699 277 176 68 324 127 330 132 6 5 6 11 0 17 -6 5 -63 -13
-135 -42z"/>
<path d="M9200 9495 c-14 -8 -20 -14 -15 -14 6 0 21 6 35 14 14 8 21 14 15 14
-5 0 -21 -6 -35 -14z"/>
<path d="M7430 8140 c-8 -5 -10 -10 -5 -10 6 0 17 5 25 10 8 5 11 10 5 10 -5
0 -17 -5 -25 -10z"/>
</g>
</svg>
